PathFileType	4	(X/Y/Z)	Walk3.trc
DataRate	CameraRate	NumFrames	NumMarkers	Units	OrigDataRate	OrigDataStartFrame	OrigNumFrames
200.000000	200.000000	7	60	mm	200.000000	748	799
Frame#	Times		LToe		RCAR		RWRU		LLFC		RWRR		LFA1		RACR1		LUA1		STRN		LACR1		LElbow		RTH3		RLFC		LCAR		RFA1		RTB2		RToe		RFHD		RMT1		RMFC		LWRU		RTH2		RTB3		RMT5		LPSI		C7		LWRR		RPSI		RTB1		LTB1		RCAL		LTH3		LFHD		RTB4		LTB4		RASI		LTH4		RMMAL		LMT1		RLMAL		CLAV		LMFC		LTH2		LBHD		RBHD		RElbow		LTB2		LTB3		RUA1		RBack		LMMAL		RTH4		T10		LTH1		LCAL		RTH1		LMT5		LElbowM		RElbowM		LLMAL
			X1	Y1	Z1	X2	Y2	Z2	X3	Y3	Z3	X4	Y4	Z4	X5	Y5	Z5	X6	Y6	Z6	X7	Y7	Z7	X8	Y8	Z8	X9	Y9	Z9	X10	Y10	Z10	X11	Y11	Z11	X12	Y12	Z12	X13	Y13	Z13	X14	Y14	Z14	X15	Y15	Z15	X16	Y16	Z16	X17	Y17	Z17	X18	Y18	Z18	X19	Y19	Z19	X20	Y20	Z20	X21	Y21	Z21	X22	Y22	Z22	X23	Y23	Z23	X24	Y24	Z24	X25	Y25	Z25	X26	Y26	Z26	X27	Y27	Z27	X28	Y28	Z28	X29	Y29	Z29	X30	Y30	Z30	X31	Y31	Z31	X32	Y32	Z32	X33	Y33	Z33	X34	Y34	Z34	X35	Y35	Z35	X36	Y36	Z36	X37	Y37	Z37	X38	Y38	Z38	X39	Y39	Z39	X40	Y40	Z40	X41	Y41	Z41	X42	Y42	Z42	X43	Y43	Z43	X44	Y44	Z44	X45	Y45	Z45	X46	Y46	Z46	X47	Y47	Z47	X48	Y48	Z48	X49	Y49	Z49	X50	Y50	Z50	X51	Y51	Z51	X52	Y52	Z52	X53	Y53	Z53	X54	Y54	Z54	X55	Y55	Z55	X56	Y56	Z56	X57	Y57	Z57	X58	Y58	Z58	X59	Y59	Z59	X60	Y60	Z60

748	3.74	1130.7	31.355	-33.614	1110.6	851.1	355.65	1051	889.92	346.94	997.27	504.49	-151	1123.7	895.17	295.78	1189.5	1062.3	-314.12	1074.8	1503.1	185.85	1102.1	1350.4	-266.46	1212	1301.5	0.5286	1091.8	1533.7	-185.77	1087.2	1179.1	-315.72	1157.1	648.51	207.7	1217.8	530.27	208.26	1259.8	910.8	-322.99	1074	1034.3	320.71	1307.7	311.64	193.57	1505.1	107.98	149.63	1211.8	1715.2	79.005	1455.8	105.18	132.42	1227.5	516	58.76	1181.3	929.35	-323.77	1171	752.3	225.35	1321	227.73	129.82	1416.1	74.073	215.53	927.37	1076.2	-64.321	978.05	1560.8	0.23119	1253.3	948.38	-266.52	924.19	1061.7	43.289	1302.1	399.86	133.23	1010.9	357.91	-40.788	1244.6	46.23	129.95	1046.9	648.67	-175.61	1221.7	1723.5	-26.493	1311.5	314.05	130.5	990.85	275.79	-32.965	1137.1	1045	160.35	1057.7	732.84	-194.19	1322.4	128.2	85.872	1073.9	46.857	-19.084	1290.2	93.46	175.67	1147.5	1473.9	-9.5986	999.54	507.54	-10.155	1113	730.92	-176.43	1058.7	1696.6	-61.194	1042.2	1688	79.082	993.47	1166.5	300.86	1011.5	265.84	-91.72	972.05	193.42	-25.081	1044.4	1324	259.42	914.12	1438.9	113.52	935.49	97.995	17.732	1118.1	723.46	210.53	940.33	1202.4	-13.025	1067.9	817.92	-211.43	846.62	47.215	-41.858	1078.2	803.24	212.15	1027.9	26.544	-111.96	1049.5	1148	-234.61	972.59	1140.5	209.36	914	68.268	-80.768
749	3.745	1130.7	31.313	-33.607	1113.3	849.82	355.8	1053.9	889.01	347.17	999.87	504.21	-150.66	1126.6	893.92	296	1194	1061.6	-313.61	1079.2	1502.4	186.31	1106.7	1349.7	-266.04	1216.6	1300.8	0.84483	1096.2	1533.1	-185.32	1091.7	1178.4	-315.25	1160.8	647.09	207.13	1222.3	529.12	207.91	1264.4	910.1	-322.39	1077.5	1033.3	320.9	1316.5	312.17	193.79	1518	111.55	150.24	1216.2	1714.5	79.562	1468.7	107.91	133.09	1232.3	514.98	58.189	1185.9	928.67	-323.26	1174.8	750.7	225.39	1331.6	228.18	130.37	1429.5	76.322	216.25	932.02	1075.5	-63.7	982.47	1560	0.69738	1257.9	947.71	-265.94	928.98	1060.9	43.886	1309.1	400.17	133.16	1012.7	357.45	-40.551	1258.4	45.582	130.81	1050.2	648.21	-175.3	1226.1	1722.8	-25.922	1320.2	314.54	130.66	992.16	275.46	-32.764	1142.1	1044.3	160.57	1061.1	732.23	-193.88	1334.8	128.6	86.605	1073.9	46.833	-19.081	1303.2	93.682	176.45	1152	1473.2	-9.1813	1002.2	507.25	-9.834	1116.5	730.24	-175.94	1063.1	1695.9	-60.643	1046.6	1687.3	79.626	997.41	1165.8	300.93	1012.8	265.26	-91.643	972.75	193.31	-24.795	1048.6	1323.2	259.75	918.58	1438.1	113.96	935.65	98.014	17.825	1121.9	722.13	210.09	944.96	1201.6	-12.35	1071.7	817.37	-211.18	846.7	47.418	-41.828	1082.2	801.97	211.85	1027.9	26.566	-111.97	1054	1147.3	-234.13	976.63	1139.9	209.39	914.14	68.464	-80.711
750	3.75	1130.8	31.272	-33.605	1116	848.53	355.96	1056.9	888.09	347.42	1002.5	503.93	-150.32	1129.6	892.65	296.23	1198.6	1060.9	-313.09	1083.6	1501.6	186.79	1111.2	1349	-265.6	1221.2	1300.2	1.1776	1100.6	1532.4	-184.86	1096.3	1177.7	-314.76	1164.5	645.67	206.6	1226.7	527.98	207.6	1269	909.35	-321.79	1081	1032.2	321.11	1325.2	312.71	194.02	1530.4	115.06	150.91	1220.7	1713.7	80.132	1481.3	110.63	133.8	1237	513.95	57.671	1190.5	927.95	-322.73	1178.5	749.1	225.43	1342	228.69	130.9	1442.6	78.57	216.96	936.69	1074.8	-63.067	986.91	1559.2	1.188	1262.4	947	-265.36	933.79	1060	44.503	1316.1	400.48	133.12	1014.5	356.97	-40.308	1271.9	45.089	131.54	1053.4	647.74	-174.99	1230.5	1722.1	-25.342	1328.9	315.05	130.82	993.47	275.12	-32.555	1147	1043.5	160.8	1064.5	731.61	-193.58	1347	129.13	87.275	1074	46.808	-19.079	1315.9	93.997	177.15	1156.5	1472.5	-8.7439	1005	506.96	-9.4993	1119.9	729.56	-175.48	1067.5	1695.2	-60.075	1051	1686.5	80.186	1001.4	1165	301.03	1014.2	264.67	-91.582	973.46	193.19	-24.507	1052.9	1322.5	260.11	923.05	1437.3	114.42	935.81	98.043	17.922	1125.7	720.79	209.71	949.63	1200.8	-11.656	1075.5	816.8	-210.92	846.78	47.633	-41.796	1086.3	800.71	211.58	1027.9	26.587	-111.97	1058.6	1146.6	-233.63	980.7	1139.3	209.46	914.28	68.692	-80.648
751	3.755	1130.9	31.234	-33.606	1118.7	847.21	356.14	1059.8	887.15	347.7	1005.1	503.65	-149.97	1132.7	891.36	296.48	1203.1	1060.1	-312.56	1088.1	1500.8	187.3	1115.7	1348.3	-265.14	1225.8	1299.5	1.5283	1105	1531.7	-184.39	1100.8	1176.9	-314.24	1168.3	644.26	206.13	1231.2	526.84	207.31	1273.5	908.57	-321.18	1084.5	1031.2	321.35	1333.7	313.23	194.25	1542.6	118.49	151.63	1225.1	1712.9	80.714	1493.5	113.32	134.52	1241.7	512.91	57.214	1195	927.2	-322.18	1182.3	747.5	225.48	1352.1	229.25	131.39	1455.2	80.782	217.65	941.38	1074.1	-62.421	991.35	1558.4	1.7034	1266.9	946.24	-264.77	938.62	1059.2	45.137	1323.1	400.78	133.1	1016.3	356.5	-40.06	1285.1	44.734	132.14	1056.6	647.26	-174.67	1234.9	1721.3	-24.753	1337.4	315.58	130.99	994.79	274.79	-32.335	1152	1042.8	161.03	1067.9	731	-193.29	1358.9	129.77	87.874	1074	46.782	-19.077	1328.3	94.382	177.75	1161	1471.7	-8.2859	1007.7	506.66	-9.1533	1123.4	728.86	-175.05	1071.9	1694.4	-59.491	1055.4	1685.7	80.762	1005.4	1164.2	301.16	1015.5	264.08	-91.529	974.18	193.08	-24.219	1057.1	1321.7	260.49	927.55	1436.4	114.92	935.98	98.082	18.024	1129.6	719.46	209.38	954.31	1200	-10.946	1079.3	816.22	-210.66	846.86	47.86	-41.759	1090.5	799.45	211.37	1027.9	26.609	-111.97	1063.1	1145.9	-233.09	984.8	1138.7	209.56	914.42	68.956	-80.577
752	3.76	1131	31.197	-33.61	1121.5	845.89	356.34	1062.9	886.19	347.99	1007.7	503.36	-149.61	1135.8	890.06	296.75	1207.6	1059.3	-312.02	1092.6	1500	187.82	1120.2	1347.5	-264.66	1230.4	1298.9	1.8978	1109.4	1530.9	-183.89	1105.3	1176.1	-313.68	1172.1	642.87	205.71	1235.8	525.71	207.06	1278	907.73	-320.57	1088	1030.1	321.61	1342	313.73	194.49	1554.4	121.82	152.38	1229.5	1712.1	81.307	1505.5	115.95	135.25	1246.5	511.88	56.82	1199.5	926.42	-321.63	1186.2	745.92	225.55	1362.1	229.85	131.85	1467.5	82.925	218.3	946.1	1073.4	-61.763	995.8	1557.6	2.2442	1271.3	945.45	-264.19	943.48	1058.4	45.789	1329.9	401.08	133.12	1018.1	356.03	-39.806	1297.9	44.496	132.6	1059.8	646.77	-174.35	1239.3	1720.6	-24.154	1345.7	316.11	131.16	996.1	274.47	-32.107	1157.1	1041.9	161.27	1071.3	730.4	-193	1370.5	130.5	88.395	1074.1	46.755	-19.074	1340.3	94.817	178.25	1165.5	1471	-7.8071	1010.5	506.35	-8.7978	1126.9	728.15	-174.65	1076.4	1693.7	-58.888	1059.8	1684.9	81.357	1009.4	1163.4	301.32	1016.8	263.51	-91.472	974.92	192.96	-23.933	1061.4	1320.9	260.91	932.07	1435.5	115.44	936.15	98.133	18.131	1133.6	718.15	209.13	959.03	1199.1	-10.222	1083.2	815.63	-210.4	846.94	48.101	-41.717	1094.8	798.21	211.22	1027.9	26.631	-111.97	1067.6	1145.1	-232.52	988.93	1138	209.69	914.57	69.256	-80.497
753	3.765	1131.1	31.163	-33.616	1124.4	844.55	356.56	1066	885.21	348.31	1010.3	503.07	-149.25	1138.9	888.75	297.05	1212	1058.5	-311.47	1097	1499.2	188.36	1124.7	1346.7	-264.16	1235	1298.2	2.287	1113.8	1530.2	-183.38	1109.8	1175.3	-313.1	1176.1	641.51	205.38	1240.4	524.59	206.85	1282.4	906.86	-319.96	1091.6	1029	321.91	1350.2	314.18	194.73	1565.9	125.01	153.15	1233.9	1711.3	81.913	1517	118.5	135.97	1251.2	510.85	56.495	1203.9	925.6	-321.06	1190.1	744.39	225.66	1371.8	230.47	132.25	1479.4	84.965	218.9	950.84	1072.7	-61.092	1000.3	1556.7	2.8105	1275.7	944.61	-263.59	948.36	1057.5	46.459	1336.6	401.36	133.18	1020	355.56	-39.546	1310.4	44.356	132.89	1063	646.27	-174.03	1243.8	1719.8	-23.545	1353.9	316.63	131.33	997.4	274.15	-31.868	1162.1	1041.1	161.51	1074.7	729.8	-192.72	1381.9	131.31	88.833	1074.1	46.727	-19.07	1352	95.279	178.63	1170	1470.2	-7.307	1013.3	506.04	-8.4343	1130.4	727.43	-174.27	1080.8	1692.9	-58.267	1064.3	1684.1	81.97	1013.5	1162.6	301.51	1018.1	262.96	-91.404	975.66	192.84	-23.65	1065.7	1320	261.35	936.61	1434.6	115.99	936.33	98.196	18.243	1137.6	716.86	208.96	963.77	1198.2	-9.4878	1087	815.04	-210.13	847.03	48.357	-41.67	1099.1	796.99	211.13	1027.9	26.655	-111.96	1072.1	1144.3	-231.92	993.09	1137.3	209.86	914.72	69.596	-80.408
754	3.77	1131.2	31.131	-33.624	1127.3	843.2	356.81	1069.1	884.2	348.65	1012.9	502.79	-148.88	1142.1	887.43	297.37	1216.4	1057.7	-310.9	1101.6	1498.3	188.93	1129.2	1345.9	-263.64	1239.7	1297.5	2.6971	1118.2	1529.4	-182.85	1114.3	1174.4	-312.49	1180.2	640.2	205.12	1245.1	523.48	206.68	1286.9	905.95	-319.35	1095.3	1027.9	322.23	1358.1	314.59	194.97	1576.9	128.04	153.9	1238.4	1710.5	82.532	1528.3	120.95	136.66	1256	509.85	56.236	1208.4	924.75	-320.48	1194.1	742.91	225.82	1381.2	231.1	132.6	1490.8	86.871	219.42	955.61	1071.9	-60.41	1004.8	1555.8	3.4023	1280.2	943.74	-263	953.26	1056.7	47.146	1343.3	401.61	133.26	1021.8	355.09	-39.279	1322.5	44.29	133.03	1066.2	645.77	-173.7	1248.2	1719.1	-22.926	1361.9	317.13	131.5	998.71	273.85	-31.621	1167.2	1040.2	161.75	1078.1	729.21	-192.43	1392.9	132.16	89.185	1074.1	46.698	-19.064	1363.3	95.743	178.89	1174.5	1469.4	-6.7853	1016.1	505.72	-8.0638	1133.9	726.7	-173.9	1085.2	1692.1	-57.626	1068.7	1683.2	82.603	1017.6	1161.7	301.75	1019.4	262.44	-91.319	976.42	192.72	-23.37	1070	1319.1	261.82	941.17	1433.7	116.56	936.52	98.272	18.361	1141.7	715.6	208.86	968.54	1197.3	-8.7454	1090.9	814.43	-209.86	847.13	48.632	-41.616	1103.5	795.79	211.12	1027.9	26.682	-111.95	1076.6	1143.5	-231.29	997.28	1136.6	210.07	914.88	69.973	-80.309
